<svg xmlns="http://www.w3.org/2000/svg" xmlns:xlink="http://www.w3.org/1999/xlink" width="1000" zoomAndPan="magnify" viewBox="0 0 750 749.999995" height="1000" preserveAspectRatio="xMidYMid meet" version="1.0"><path fill="#f3da9a" d="M 409.703125 471.273438 C 380.253906 488.3125 337.925781 471.273438 337.925781 471.273438 C 232.558594 472.652344 269.488281 391.75 269.488281 391.75 C 261.820312 388.679688 229.914062 359.820312 228.382812 327.890625 C 226.847656 295.960938 259.671875 304.25 280.835938 291.96875 C 302.003906 279.691406 314.886719 295.65625 314.886719 295.65625 C 380.226562 261.882812 436.3125 295.65625 436.3125 295.65625 C 436.3125 295.65625 449.195312 279.691406 470.363281 291.96875 C 491.53125 304.25 524.351562 295.960938 522.820312 327.890625 C 521.285156 359.820312 489.382812 388.679688 481.714844 391.75 C 481.714844 391.75 518.644531 472.652344 413.273438 471.273438 Z M 409.703125 471.273438 " fill-opacity="1" fill-rule="nonzero"/><path fill="#895f33" d="M 313.664062 295.65625 C 313.664062 295.65625 318.265625 324.515625 300.472656 345.085938 C 282.679688 365.65625 268.878906 392.671875 268.878906 392.671875 C 268.878906 392.671875 244.644531 376.707031 234.828125 353.066406 C 225.011719 329.425781 227.464844 317.144531 230.226562 312.847656 C 232.988281 308.550781 247.710938 301.796875 261.207031 300.261719 C 274.707031 298.726562 292.191406 280.917969 313.664062 295.65625 Z M 313.664062 295.65625 " fill-opacity="1" fill-rule="nonzero"/><path fill="#895f33" d="M 437.203125 295.65625 C 437.203125 295.65625 432.601562 324.515625 450.394531 345.085938 C 468.183594 365.65625 481.988281 392.671875 481.988281 392.671875 C 481.988281 392.671875 506.222656 376.707031 516.039062 353.066406 C 525.855469 329.425781 523.402344 317.144531 520.640625 312.847656 C 517.878906 308.550781 503.15625 301.796875 489.65625 300.261719 C 476.160156 298.726562 458.675781 280.917969 437.203125 295.65625 Z M 437.203125 295.65625 " fill-opacity="1" fill-rule="nonzero"/><path fill="#e56a5a" d="M 360.90625 441.589844 C 360.90625 441.589844 361 450.765625 366.699219 458.105469 C 372.640625 465.757812 384.210938 465.519531 389.699219 457.53125 C 392.1875 453.902344 394.046875 448.824219 393.828125 441.796875 C 393.828125 441.796875 380.738281 438.109375 377.058594 420.710938 C 377.058594 420.710938 372.558594 434.425781 360.902344 441.589844 Z M 360.90625 441.589844 " fill-opacity="1" fill-rule="nonzero"/><path fill="#895f33" d="M 389.742188 392.671875 C 389.742188 392.671875 370.414062 401.574219 378.082031 424.601562 C 385.753906 447.628906 413.667969 445.171875 421.03125 442.714844 C 421.03125 442.714844 439.433594 438.109375 444.648438 420.304688 C 449.867188 402.496094 409.679688 385.609375 389.742188 392.671875 Z M 389.742188 392.671875 " fill-opacity="1" fill-rule="nonzero"/><path fill="#895f33" d="M 363.25 392.671875 C 363.25 392.671875 382.574219 401.574219 374.90625 424.601562 C 367.238281 447.628906 339.320312 445.171875 331.960938 442.714844 C 331.960938 442.714844 313.554688 438.109375 308.339844 420.304688 C 303.125 402.496094 343.308594 385.609375 363.25 392.671875 Z M 363.25 392.671875 " fill-opacity="1" fill-rule="nonzero"/><path fill="#381c0e" d="M 443.835938 422.589844 C 442.5 421.855469 440.820312 422.34375 440.085938 423.679688 C 432.191406 438.035156 419.375 441.117188 412.441406 441.679688 C 401.511719 442.5625 390.628906 438.632812 385.371094 431.90625 C 380.339844 425.476562 379.371094 414.847656 379.210938 409.621094 C 386.445312 406.148438 390.550781 399.144531 392.527344 394.691406 C 393.453125 392.621094 392.175781 390.242188 389.941406 389.859375 C 378.269531 387.863281 368.472656 389.042969 363.601562 389.945312 C 361.652344 390.304688 360.40625 392.238281 360.875 394.164062 C 362.949219 402.621094 369.0625 407.054688 373.054688 409.117188 C 372.945312 414.132812 372.089844 425.246094 366.878906 431.90625 C 361.621094 438.632812 350.742188 442.5625 339.808594 441.679688 C 332.875 441.121094 320.058594 438.039062 312.164062 423.679688 C 311.429688 422.34375 309.75 421.855469 308.414062 422.589844 C 307.082031 423.328125 306.59375 425.007812 307.328125 426.34375 C 314.105469 438.664062 325.484375 446.066406 339.367188 447.1875 C 340.511719 447.277344 341.65625 447.324219 342.800781 447.324219 C 348.257812 447.324219 353.621094 446.285156 358.375 444.414062 C 358.84375 447.976562 360.253906 454.316406 364.515625 459.800781 C 367.8125 464.046875 372.710938 466.453125 378.011719 466.453125 C 378.183594 466.453125 378.355469 466.453125 378.527344 466.445312 C 383.972656 466.285156 388.871094 463.609375 391.96875 459.09375 C 394.640625 455.207031 396.167969 450.59375 396.523438 445.351562 C 400.582031 446.628906 404.984375 447.324219 409.449219 447.324219 C 410.589844 447.324219 411.738281 447.277344 412.882812 447.1875 C 426.765625 446.066406 438.144531 438.664062 444.921875 426.34375 C 445.65625 425.007812 445.167969 423.324219 443.835938 422.589844 Z M 387.421875 455.96875 C 385.332031 459.007812 382.035156 460.816406 378.367188 460.921875 C 374.644531 461.035156 371.1875 459.386719 368.878906 456.414062 C 365.117188 451.566406 364.066406 445.699219 363.777344 443.019531 C 368.300781 439.914062 371.714844 435.957031 374.199219 432.292969 C 374.527344 439.214844 374.824219 446.746094 374.714844 448.367188 C 374.613281 449.890625 375.765625 451.207031 377.285156 451.308594 C 377.347656 451.3125 377.410156 451.316406 377.472656 451.316406 C 378.914062 451.316406 380.125 450.195312 380.226562 448.738281 C 380.347656 446.886719 380.082031 440 379.816406 434.234375 C 383.726562 439.796875 388.445312 442.523438 391.074219 443.699219 C 390.953125 448.488281 389.726562 452.613281 387.421875 455.96875 Z M 387.421875 455.96875 " fill-opacity="1" fill-rule="nonzero"/><path fill="#381c0e" d="M 339.433594 329.121094 C 339.433594 329.121094 330.152344 324.589844 321.332031 329.886719 C 312.832031 334.992188 313.664062 343.855469 320.871094 345.546875 C 328.082031 347.234375 332.074219 340.65625 337.4375 339.097656 C 344.035156 337.179688 344.339844 331.117188 339.433594 329.121094 Z M 339.433594 329.121094 " fill-opacity="1" fill-rule="nonzero"/><path fill="#381c0e" d="M 406.246094 329.121094 C 406.246094 329.121094 415.527344 324.589844 424.347656 329.886719 C 433.164062 335.183594 432.015625 343.855469 424.804688 345.546875 C 417.597656 347.234375 413.601562 340.65625 408.242188 339.097656 C 401.644531 337.179688 401.339844 331.117188 406.246094 329.121094 Z M 406.246094 329.121094 " fill-opacity="1" fill-rule="nonzero"/><path fill="#ffffff" d="M 383.503906 397.125 C 383.503906 397.273438 383.460938 397.417969 383.378906 397.5625 C 383.296875 397.707031 383.175781 397.847656 383.015625 397.984375 C 382.851562 398.121094 382.652344 398.25 382.417969 398.375 C 382.183594 398.496094 381.917969 398.609375 381.617188 398.714844 C 381.316406 398.820312 380.992188 398.914062 380.640625 398.996094 C 380.289062 399.078125 379.917969 399.148438 379.527344 399.203125 C 379.136719 399.261719 378.734375 399.300781 378.320312 399.332031 C 377.902344 399.359375 377.484375 399.375 377.0625 399.375 C 376.640625 399.375 376.21875 399.359375 375.804688 399.332031 C 375.390625 399.300781 374.988281 399.261719 374.597656 399.203125 C 374.207031 399.148438 373.835938 399.078125 373.484375 398.996094 C 373.132812 398.914062 372.804688 398.820312 372.507812 398.714844 C 372.207031 398.609375 371.941406 398.496094 371.707031 398.375 C 371.472656 398.25 371.273438 398.121094 371.109375 397.984375 C 370.949219 397.847656 370.828125 397.707031 370.742188 397.5625 C 370.660156 397.417969 370.621094 397.273438 370.621094 397.125 C 370.621094 396.976562 370.660156 396.832031 370.742188 396.683594 C 370.828125 396.539062 370.949219 396.398438 371.109375 396.261719 C 371.273438 396.125 371.472656 395.996094 371.707031 395.875 C 371.941406 395.75 372.207031 395.636719 372.507812 395.53125 C 372.804688 395.429688 373.132812 395.335938 373.484375 395.253906 C 373.835938 395.171875 374.207031 395.101562 374.597656 395.046875 C 374.988281 394.988281 375.390625 394.945312 375.804688 394.917969 C 376.21875 394.886719 376.640625 394.875 377.0625 394.875 C 377.484375 394.875 377.902344 394.886719 378.320312 394.917969 C 378.734375 394.945312 379.136719 394.988281 379.527344 395.046875 C 379.917969 395.101562 380.289062 395.171875 380.640625 395.253906 C 380.992188 395.335938 381.316406 395.429688 381.617188 395.53125 C 381.917969 395.636719 382.183594 395.75 382.417969 395.875 C 382.652344 395.996094 382.851562 396.125 383.011719 396.261719 C 383.175781 396.398438 383.296875 396.539062 383.378906 396.683594 C 383.460938 396.832031 383.503906 396.976562 383.503906 397.125 Z M 383.503906 397.125 " fill-opacity="1" fill-rule="nonzero"/><path fill="#ffffff" d="M 436.980469 298.109375 C 436.980469 298.109375 453.546875 288.492188 468.679688 305.070312 C 483.8125 321.648438 505.898438 316.53125 511.011719 332.089844 C 516.125 347.644531 491.378906 383.667969 482.996094 390.015625 C 482.996094 390.015625 508.148438 373.433594 516.738281 349.488281 C 525.328125 325.539062 521.851562 313.875 511.832031 307.527344 C 501.808594 301.179688 480.949219 300.160156 473.996094 295.039062 C 467.046875 289.921875 447.820312 282.351562 436.980469 298.109375 Z M 436.980469 298.109375 " fill-opacity="1" fill-rule="nonzero"/><path fill="#ffffff" d="M 312.5625 297.804688 C 312.5625 297.804688 295.996094 288.183594 280.867188 304.765625 C 265.734375 321.34375 243.644531 316.226562 238.53125 331.78125 C 233.417969 347.339844 258.164062 383.359375 266.550781 389.707031 C 266.550781 389.707031 241.394531 373.128906 232.804688 349.179688 C 224.214844 325.234375 227.691406 313.566406 237.714844 307.21875 C 247.734375 300.875 268.59375 299.851562 275.546875 294.734375 C 282.5 289.617188 301.722656 282.042969 312.5625 297.804688 Z M 312.5625 297.804688 " fill-opacity="1" fill-rule="nonzero"/><path fill="#ffffff" d="M 479.316406 396.203125 C 479.316406 396.203125 495.011719 462.683594 409.707031 471.273438 C 409.707031 471.273438 449.5625 475.875 474.410156 454.996094 C 499.257812 434.121094 481.164062 398.199219 479.320312 396.203125 Z M 479.316406 396.203125 " fill-opacity="1" fill-rule="nonzero"/><path fill="#ffffff" d="M 271.464844 396.203125 C 271.464844 396.203125 255.769531 462.683594 341.074219 471.273438 C 341.074219 471.273438 301.21875 475.875 276.371094 454.996094 C 251.523438 434.121094 269.617188 398.199219 271.460938 396.203125 Z M 271.464844 396.203125 " fill-opacity="1" fill-rule="nonzero"/><path fill="#381c0e" d="M 493.183594 297.753906 C 485.558594 296.054688 477.671875 294.292969 471.136719 290.503906 C 459.222656 283.59375 449.652344 285.101562 443.722656 287.582031 C 439.738281 289.246094 436.847656 291.5625 435.1875 293.128906 C 430.550781 290.660156 417.933594 284.609375 400.007812 281.199219 C 386.855469 278.695312 373.566406 278.152344 360.515625 279.582031 C 344.859375 281.296875 329.507812 285.875 314.855469 293.1875 C 313.203125 291.621094 310.289062 289.269531 306.257812 287.582031 C 300.328125 285.101562 290.757812 283.589844 278.84375 290.503906 C 272.308594 294.292969 264.421875 296.054688 256.796875 297.753906 C 240.609375 301.367188 223.871094 305.105469 225.015625 328.945312 C 225.875 346.902344 235.734375 362.960938 243.855469 373.273438 C 251.328125 382.765625 259.785156 390.449219 265.148438 393.804688 C 264.394531 395.945312 263.789062 397.890625 263.304688 399.59375 C 263.234375 399.855469 263.199219 400.117188 263.203125 400.378906 C 262.316406 403.398438 261.421875 407.050781 260.777344 411.105469 C 258.398438 426.050781 260.632812 439.316406 267.246094 449.460938 C 278.277344 466.398438 300.953125 474.972656 334.675781 474.972656 C 335.378906 474.972656 336.09375 474.972656 336.808594 474.960938 C 339.160156 475.863281 348.953125 479.40625 361.75 481.316406 C 367.125 482.117188 372.300781 482.515625 377.253906 482.515625 C 389.785156 482.515625 400.855469 479.964844 409.820312 474.957031 L 412.648438 474.957031 C 413.542969 474.96875 414.425781 474.972656 415.300781 474.972656 C 449.023438 474.972656 471.703125 466.398438 482.730469 449.460938 C 489.34375 439.3125 491.578125 426.046875 489.199219 411.101562 C 487.976562 403.421875 485.855469 397.1875 484.609375 393.941406 C 489.960938 390.660156 498.550781 382.890625 506.121094 373.273438 C 514.242188 362.960938 524.101562 346.898438 524.964844 328.941406 C 526.105469 305.101562 509.367188 301.367188 493.179688 297.75 Z M 519.449219 328.679688 C 518.660156 345.179688 509.40625 360.175781 501.789062 369.855469 C 494.238281 379.441406 486.699219 385.9375 482.503906 388.730469 C 477.839844 377.398438 469.449219 362.527344 454.652344 349.175781 C 445.765625 341.15625 442.566406 334.53125 441.449219 330.386719 C 440.878906 328.273438 440.777344 326.582031 440.832031 325.398438 C 440.882812 324.203125 440.148438 323.109375 439.023438 322.695312 C 437.273438 322.058594 435.402344 323.304688 435.324219 325.171875 C 435.113281 330.347656 436.949219 340.644531 450.953125 353.28125 C 470.199219 370.648438 478.023438 390.699219 480.976562 401.105469 C 481.085938 401.5 481.28125 401.847656 481.527344 402.136719 C 482.355469 404.972656 483.183594 408.378906 483.773438 412.128906 C 485.257812 421.554688 485.472656 435.160156 478.09375 446.46875 C 467.867188 462.140625 445.875 469.867188 412.703125 469.429688 C 412.6875 469.429688 412.675781 469.429688 412.664062 469.429688 L 409.089844 469.429688 C 408.605469 469.429688 408.128906 469.558594 407.710938 469.800781 C 393.226562 478.183594 375.234375 477.730469 362.695312 475.867188 C 348.890625 473.824219 338.445312 469.667969 338.347656 469.628906 C 338.019531 469.496094 337.667969 469.429688 337.316406 469.429688 C 337.304688 469.429688 337.289062 469.429688 337.277344 469.429688 C 304.117188 469.859375 282.109375 462.136719 271.886719 446.46875 C 264.507812 435.160156 264.726562 421.554688 266.207031 412.128906 C 267.84375 401.691406 271.351562 393.898438 271.386719 393.820312 C 271.609375 393.339844 271.679688 392.8125 271.609375 392.292969 C 275.898438 381.390625 283.933594 366.550781 298.640625 353.277344 C 318.515625 335.339844 313.878906 322.117188 313.671875 321.5625 C 313.136719 320.136719 311.542969 319.410156 310.117188 319.945312 C 308.691406 320.480469 307.964844 322.074219 308.5 323.5 C 308.539062 323.601562 311.789062 333.972656 294.941406 349.175781 C 280.234375 362.445312 271.855469 377.222656 267.171875 388.53125 C 262.921875 385.636719 255.5625 379.21875 248.191406 369.859375 C 240.570312 360.179688 231.316406 345.179688 230.527344 328.683594 C 229.601562 309.488281 242.132812 306.691406 257.996094 303.152344 C 266.03125 301.359375 274.339844 299.503906 281.609375 295.285156 C 300.382812 284.394531 311.664062 297.75 312.128906 298.316406 C 312.949219 299.335938 314.375 299.636719 315.542969 299.035156 C 348.507812 282 378.984375 282.863281 398.753906 286.589844 C 420.261719 290.644531 434.140625 298.867188 434.277344 298.949219 C 435.449219 299.65625 436.96875 299.386719 437.839844 298.324219 C 438.3125 297.75 449.59375 284.398438 468.367188 295.285156 C 475.636719 299.503906 483.941406 301.359375 491.980469 303.152344 C 507.84375 306.691406 520.371094 309.488281 519.449219 328.683594 Z M 519.449219 328.679688 " fill-opacity="1" fill-rule="nonzero"/><path fill="#ffffff" d="M 494.992188 353.339844 L 480.585938 352.261719 C 473.035156 349.199219 455.882812 348.519531 429.589844 350.25 C 410.148438 351.527344 392.433594 353.703125 391.691406 353.792969 C 382.292969 354.824219 364.523438 353.867188 363.066406 353.785156 C 361.574219 353.601562 344.234375 351.496094 325.25 350.25 C 298.953125 348.519531 281.804688 349.199219 274.25 352.261719 L 259.847656 353.339844 C 258.265625 353.457031 257.050781 354.785156 257.066406 356.367188 L 257.289062 377.507812 C 257.296875 378.503906 257.796875 379.425781 258.625 379.976562 C 259.21875 380.375 263.808594 383.339844 268.84375 383.828125 C 270.246094 392.324219 274.933594 416.988281 283 424.027344 C 289.121094 429.367188 300.835938 431.238281 307.273438 431.875 C 317.429688 432.882812 328.085938 432.269531 335.773438 430.234375 C 352.527344 425.792969 360.5 409.261719 363.5 403.042969 C 364.082031 401.835938 364.652344 400.550781 365.257812 399.191406 C 367.355469 394.46875 370.210938 388.046875 373.160156 387.160156 L 381.675781 387.160156 C 384.625 388.046875 387.480469 394.46875 389.578125 399.191406 C 390.183594 400.550781 390.753906 401.835938 391.335938 403.042969 C 394.335938 409.265625 402.3125 425.796875 419.0625 430.234375 C 424.316406 431.625 430.949219 432.351562 437.867188 432.351562 C 441.074219 432.351562 444.34375 432.195312 447.5625 431.875 C 454 431.238281 465.714844 429.367188 471.835938 424.027344 C 479.902344 416.988281 484.589844 392.324219 485.992188 383.828125 C 491.027344 383.339844 495.617188 380.375 496.210938 379.976562 C 497.035156 379.425781 497.535156 378.503906 497.546875 377.507812 L 497.773438 356.367188 C 497.789062 354.785156 496.574219 353.457031 494.992188 353.339844 Z M 494.992188 353.339844 " fill-opacity="1" fill-rule="nonzero"/><path fill="#381c0e" d="M 437.871094 435.113281 C 430.671875 435.113281 423.742188 434.328125 418.359375 432.902344 C 400.378906 428.140625 392.003906 410.78125 388.855469 404.242188 C 388.25 402.988281 387.671875 401.691406 387.058594 400.3125 C 386.027344 397.988281 384.851562 395.347656 383.59375 393.175781 C 382.296875 390.9375 381.457031 390.171875 381.09375 389.921875 L 373.75 389.921875 C 373.382812 390.171875 372.546875 390.9375 371.25 393.175781 C 369.992188 395.34375 368.816406 397.984375 367.78125 400.3125 C 367.167969 401.695312 366.589844 402.996094 365.988281 404.242188 C 362.835938 410.78125 354.460938 428.140625 336.480469 432.902344 C 328.492188 435.019531 317.472656 435.664062 307.003906 434.625 C 300.238281 433.953125 287.882812 431.957031 281.1875 426.113281 C 273.105469 419.0625 268.378906 397.222656 266.457031 386.253906 C 261.765625 385.269531 257.910156 382.820312 257.097656 382.28125 C 255.511719 381.21875 254.550781 379.453125 254.535156 377.542969 L 254.3125 356.402344 C 254.28125 353.367188 256.621094 350.8125 259.648438 350.589844 L 273.636719 349.546875 C 281.855469 346.421875 298.8125 345.75 325.4375 347.496094 C 344.125 348.726562 361.019531 350.753906 363.316406 351.039062 C 364.902344 351.125 382.355469 352.042969 391.378906 351.054688 C 392.375 350.933594 409.972656 348.773438 429.414062 347.496094 C 456.039062 345.746094 472.996094 346.417969 481.214844 349.546875 L 495.203125 350.589844 C 498.226562 350.8125 500.570312 353.367188 500.539062 356.402344 L 500.316406 377.542969 C 500.296875 379.453125 499.335938 381.222656 497.75 382.28125 C 496.9375 382.824219 493.085938 385.273438 488.390625 386.253906 C 486.46875 397.226562 481.742188 419.0625 473.660156 426.113281 C 466.964844 431.957031 454.609375 433.953125 447.84375 434.625 C 444.570312 434.953125 441.222656 435.113281 437.878906 435.113281 Z M 300.539062 352.085938 C 285.800781 352.085938 278.699219 353.441406 275.289062 354.824219 C 275.023438 354.929688 274.742188 354.996094 274.457031 355.015625 L 260.050781 356.089844 C 259.925781 356.101562 259.828125 356.207031 259.828125 356.332031 L 260.046875 377.476562 C 260.046875 377.554688 260.089844 377.628906 260.15625 377.671875 C 261.804688 378.769531 265.546875 380.722656 269.109375 381.070312 C 270.355469 381.191406 271.363281 382.136719 271.566406 383.371094 C 274.085938 398.625 278.890625 416.769531 284.816406 421.941406 C 288.863281 425.472656 297.148438 428.085938 307.546875 429.117188 C 317.394531 430.09375 327.683594 429.507812 335.066406 427.550781 C 350.59375 423.4375 358.164062 407.742188 361.015625 401.832031 C 361.578125 400.664062 362.140625 399.398438 362.738281 398.0625 C 365.835938 391.089844 368.507812 385.667969 372.367188 384.503906 C 372.625 384.429688 372.894531 384.390625 373.164062 384.390625 L 381.679688 384.390625 C 381.949219 384.390625 382.214844 384.429688 382.472656 384.503906 C 386.332031 385.667969 389.007812 391.089844 392.105469 398.0625 C 392.699219 399.394531 393.257812 400.65625 393.828125 401.832031 C 396.675781 407.742188 404.246094 423.441406 419.773438 427.550781 C 424.707031 428.859375 431.136719 429.578125 437.875 429.578125 C 441.035156 429.578125 444.203125 429.421875 447.292969 429.117188 C 457.695312 428.082031 465.980469 425.46875 470.027344 421.9375 C 475.949219 416.769531 480.753906 398.625 483.273438 383.367188 C 483.480469 382.132812 484.484375 381.1875 485.730469 381.066406 C 490.199219 380.632812 494.5 377.792969 494.683594 377.667969 C 494.75 377.621094 494.789062 377.546875 494.789062 377.46875 L 495.011719 356.328125 C 495.011719 356.203125 494.914062 356.09375 494.789062 356.085938 L 480.382812 355.011719 C 480.097656 354.988281 479.8125 354.925781 479.550781 354.816406 C 474.625 352.820312 461.992188 350.882812 429.769531 353 C 410.335938 354.277344 392.769531 356.441406 392.03125 356.53125 C 392.019531 356.53125 392.007812 356.535156 391.992188 356.535156 C 382.460938 357.578125 364.886719 356.648438 362.914062 356.535156 C 362.851562 356.53125 362.792969 356.523438 362.730469 356.519531 C 360.855469 356.289062 343.882812 354.230469 325.070312 352.996094 C 315.152344 352.34375 307.089844 352.078125 300.539062 352.078125 Z M 300.539062 352.085938 " fill-opacity="1" fill-rule="nonzero"/><path fill="#381c0e" d="M 281.957031 374.675781 C 281.734375 369.808594 285.523438 365.695312 290.390625 365.507812 C 302.578125 365.035156 325 364.546875 338.5625 366.574219 C 357.90625 369.46875 357.019531 377.480469 356.351562 381.707031 C 355.6875 385.9375 347.679688 411.976562 331.894531 417.316406 C 316.105469 422.660156 297.875 418.429688 294.09375 415.761719 C 290.710938 413.371094 283.054688 398.507812 281.960938 374.679688 Z M 281.957031 374.675781 " fill-opacity="1" fill-rule="nonzero"/><path fill="#381c0e" d="M 472.898438 374.675781 C 473.125 369.808594 469.332031 365.695312 464.46875 365.507812 C 452.28125 365.035156 429.859375 364.546875 416.292969 366.574219 C 396.949219 369.46875 397.839844 377.480469 398.503906 381.707031 C 399.171875 385.9375 407.175781 411.976562 422.960938 417.316406 C 438.75 422.660156 456.980469 418.429688 460.765625 415.761719 C 464.148438 413.371094 471.800781 398.507812 472.898438 374.679688 Z M 472.898438 374.675781 " fill-opacity="1" fill-rule="nonzero"/><path fill="#ffffff" d="M 329.890625 407.167969 C 328.972656 407.167969 328.070312 406.710938 327.546875 405.867188 L 307.3125 373.375 C 306.503906 372.082031 306.898438 370.375 308.195312 369.570312 C 309.488281 368.761719 311.191406 369.15625 312 370.453125 L 332.230469 402.945312 C 333.039062 404.242188 332.644531 405.945312 331.347656 406.753906 C 330.894531 407.035156 330.386719 407.167969 329.890625 407.167969 Z M 329.890625 407.167969 " fill-opacity="1" fill-rule="nonzero"/><path fill="#ffffff" d="M 317.660156 409.621094 C 316.753906 409.621094 315.863281 409.171875 315.335938 408.347656 L 299.769531 384.089844 C 298.945312 382.808594 299.320312 381.097656 300.601562 380.273438 C 301.882812 379.449219 303.59375 379.820312 304.417969 381.105469 L 319.984375 405.363281 C 320.808594 406.644531 320.433594 408.355469 319.152344 409.179688 C 318.691406 409.480469 318.171875 409.621094 317.664062 409.621094 Z M 317.660156 409.621094 " fill-opacity="1" fill-rule="nonzero"/><path fill="#ffffff" d="M 453.300781 407.167969 C 452.378906 407.167969 451.480469 406.710938 450.953125 405.867188 L 430.71875 373.375 C 429.914062 372.082031 430.308594 370.375 431.605469 369.570312 C 432.898438 368.761719 434.601562 369.15625 435.40625 370.453125 L 455.640625 402.945312 C 456.449219 404.242188 456.050781 405.945312 454.757812 406.753906 C 454.304688 407.035156 453.796875 407.167969 453.300781 407.167969 Z M 453.300781 407.167969 " fill-opacity="1" fill-rule="nonzero"/><path fill="#ffffff" d="M 441.070312 409.621094 C 440.164062 409.621094 439.273438 409.171875 438.746094 408.347656 L 423.179688 384.089844 C 422.355469 382.808594 422.730469 381.097656 424.011719 380.273438 C 425.292969 379.449219 427.003906 379.820312 427.828125 381.105469 L 443.394531 405.363281 C 444.21875 406.644531 443.84375 408.355469 442.5625 409.179688 C 442.101562 409.480469 441.582031 409.621094 441.074219 409.621094 Z M 441.070312 409.621094 " fill-opacity="1" fill-rule="nonzero"/><path fill="#e56a5a" d="M 505.933594 434.640625 C 505.773438 410.941406 519.328125 408.371094 519.328125 408.371094 C 507.800781 404.941406 506.167969 384.613281 506.167969 384.613281 L 506.085938 384.59375 C 506.085938 384.59375 504.527344 404.242188 493 407.671875 C 493 407.671875 506.019531 410.972656 505.859375 434.671875 L 505.929688 434.640625 Z M 505.933594 434.640625 " fill-opacity="1" fill-rule="nonzero"/><path fill="#381c0e" d="M 505.859375 437.433594 C 505.324219 437.433594 504.789062 437.277344 504.332031 436.96875 C 503.558594 436.453125 503.09375 435.582031 503.101562 434.652344 C 503.175781 423.261719 500.035156 417.175781 497.386719 414.074219 C 494.839844 411.085938 492.34375 410.351562 492.316406 410.34375 C 491.113281 410.039062 490.261719 408.964844 490.234375 407.722656 C 490.207031 406.480469 491.015625 405.371094 492.207031 405.019531 C 500.171875 402.648438 502.933594 389.3125 503.328125 384.371094 C 503.390625 383.566406 503.804688 382.832031 504.453125 382.355469 C 505.101562 381.878906 505.929688 381.714844 506.714844 381.898438 L 506.796875 381.917969 C 507.960938 382.195312 508.816406 383.1875 508.917969 384.386719 C 509.335938 389.515625 512.167969 403.355469 520.109375 405.71875 C 521.34375 406.085938 522.195312 407.25 522.113281 408.535156 C 522.03125 409.816406 521.117188 410.867188 519.851562 411.078125 C 519.164062 411.234375 508.550781 414.011719 508.6875 434.621094 C 508.691406 435.734375 508.03125 436.746094 507.003906 437.179688 L 506.9375 437.207031 C 506.589844 437.355469 506.222656 437.429688 505.859375 437.429688 Z M 498.746094 407.730469 C 501.167969 409.648438 503.964844 412.8125 505.964844 417.964844 C 508.019531 413.015625 510.867188 410.023438 513.363281 408.226562 C 509.859375 405.332031 507.566406 401 506.074219 396.839844 C 504.5625 400.84375 502.253906 404.980469 498.746094 407.730469 Z M 498.746094 407.730469 " fill-opacity="1" fill-rule="nonzero"/></svg>