<svg viewBox="0 0 64 64" xmlns="http://www.w3.org/2000/svg">
  <!-- Forme de géolocalisation -->
  <path d="M32,2 C20.9527,2 12,10.9527 12,22 C12,28.456 16.1322,36.4691 21.3038,43.1119 C25.2823,48.2728 29.7072,52.4124 31.4547,54.1626 C31.7796,54.4875 32.2204,54.4875 32.5453,54.1626 C34.2928,52.4124 38.7177,48.2728 42.6962,43.1119 C47.8678,36.4691 52,28.456 52,22 C52,10.9527 43.0473,2 32,2 z" fill="#ff3333"/>

  <!-- Empreinte de patte de chien avec les cercles du haut espacés -->
  <path d="M32 38 C30 38 26 36 26 33 C26 30 28 28 32 28 C36 28 38 30 38 33 C38 36 34 38 32 38 z" fill="#FFFFFF"/>
  <circle cx="22" cy="24" r="4" fill="#FFFFFF"/>
  <circle cx="42" cy="24" r="4" fill="#FFFFFF"/>
  <circle cx="28" cy="17" r="3.5" fill="#FFFFFF"/>
  <circle cx="36" cy="17" r="3.5" fill="#FFFFFF"/>
</svg>
